<svg width="22" height="39" viewBox="0 0 22 39" fill="none" xmlns="http://www.w3.org/2000/svg">
<g id="arrow 1" clip-path="url(#clip0_1104_443)">
<path id="Vector" fill-rule="evenodd" clip-rule="evenodd" d="M20.7459 0.849476C20.369 0.491551 19.8691 0.291992 19.3493 0.291992C18.8295 0.291992 18.3296 0.491551 17.9527 0.849476L1.61502 16.6167C1.24931 16.9642 0.958106 17.3825 0.759119 17.8461C0.560133 18.3098 0.45752 18.809 0.45752 19.3135C0.45752 19.8181 0.560133 20.3173 0.759119 20.7809C0.958106 21.2445 1.24931 21.6629 1.61502 22.0104L18.071 37.894C18.8342 38.6285 20.0705 38.6381 20.8451 37.9131C21.0327 37.7403 21.1827 37.5309 21.2859 37.2978C21.3891 37.0646 21.4433 36.8128 21.4451 36.5578C21.4469 36.3028 21.3962 36.0502 21.2963 35.8157C21.1964 35.5811 21.0493 35.3696 20.8642 35.1943L5.80485 20.6615C5.62185 20.4877 5.47612 20.2785 5.37653 20.0466C5.27695 19.8147 5.2256 19.565 5.2256 19.3126C5.2256 19.0602 5.27695 18.8105 5.37653 18.5786C5.47612 18.3467 5.62185 18.1375 5.80485 17.9637L20.744 3.54539C20.927 3.37177 21.0726 3.16272 21.1722 2.93098C21.2718 2.69924 21.3231 2.44966 21.3231 2.19743C21.3231 1.94521 21.2718 1.69563 21.1722 1.46389C21.0726 1.23215 20.9289 1.0231 20.7459 0.849476Z" fill="white"/>
</g>
<defs>
<clipPath id="clip0_1104_443">
<rect width="20.9873" height="38.1587" fill="white" transform="translate(0.457275 0.29248)"/>
</clipPath>
</defs>
</svg>
