<svg width="42" height="43" viewBox="0 0 42 43" fill="none" xmlns="http://www.w3.org/2000/svg">
<g clip-path="url(#clip0_1104_355)">
<path d="M20.0435 8.64952L19.4465 9.69679C18.5664 9.1966 17.5963 8.87469 16.5917 8.74945C15.5871 8.62422 14.5677 8.6981 13.5917 8.96689C12.6156 9.23568 11.7021 9.6941 10.9033 10.316C10.1044 10.9379 9.43594 11.711 8.93594 12.5913L7.88867 11.9952C9.05736 9.94022 10.9942 8.43346 13.2735 7.80609C15.5527 7.17872 17.9878 7.48209 20.0435 8.64952Z" fill="white"/>
<path d="M26.4882 5.56907C21.0021 -0.311763 11.7531 -0.634 5.87143 4.85129C3.08601 7.45585 1.43124 11.0476 1.26154 14.8573C1.09183 18.6669 2.42068 22.3916 4.96349 25.2335C7.50629 28.0754 11.0609 29.8086 14.8659 30.0619C18.6709 30.3152 22.4238 29.0684 25.3209 26.5886C25.4734 26.4581 25.6235 26.3238 25.7712 26.1858C25.9194 26.0481 26.0636 25.9071 26.2046 25.7645C28.8483 23.0851 30.3539 19.4875 30.4067 15.7238C30.4596 11.9601 29.0555 8.32166 26.4882 5.56907ZM27.6748 15.9371C27.5682 19.0075 26.2741 21.9167 24.0652 24.052C21.8563 26.1873 18.9049 27.382 15.8326 27.3845C15.6924 27.3845 15.5514 27.3821 15.4097 27.3773C13.8525 27.3273 12.3207 26.9689 10.9029 26.323C9.48516 25.6771 8.20955 24.7565 7.1499 23.6144C2.68933 18.8291 2.95115 11.313 7.73315 6.85238C9.44833 5.25229 11.5995 4.19677 13.9146 3.81932C16.2297 3.44188 18.6047 3.75946 20.7393 4.7319C22.8739 5.70434 24.6722 7.28796 25.9067 9.28248C27.1412 11.277 27.7565 13.5928 27.6748 15.9371Z" fill="#939393"/>
<path d="M20.0435 8.64952L19.4465 9.69679C18.5664 9.1966 17.5963 8.87469 16.5917 8.74945C15.5871 8.62422 14.5677 8.6981 13.5917 8.96689C12.6156 9.23568 11.7021 9.6941 10.9033 10.316C10.1044 10.9379 9.43594 11.711 8.93594 12.5913L7.88867 11.9952C9.05736 9.94022 10.9942 8.43346 13.2735 7.80609C15.5527 7.17872 17.9878 7.48209 20.0435 8.64952Z" fill="white"/>
<path d="M40.3855 37.5348L30.4662 27.2812L26.5188 30.9652L36.4397 41.2245C36.6809 41.4833 36.9709 41.6918 37.2931 41.8381C37.6152 41.9844 37.9631 42.0655 38.3167 42.0768H38.4126C38.9385 42.0762 39.4527 41.9221 39.8923 41.6334C40.3318 41.3447 40.6775 40.934 40.887 40.4516C41.0965 39.9693 41.1606 39.4363 41.0715 38.918C40.9824 38.3997 40.744 37.9187 40.3855 37.534V37.5348Z" fill="#939393"/>
<path d="M25.8006 25.33L24.917 26.1543L28.4718 29.965L29.3554 29.1408L25.8006 25.33Z" fill="#939393"/>
<path d="M20.0435 8.64952L19.4465 9.69679C18.5664 9.1966 17.5963 8.87469 16.5917 8.74945C15.5871 8.62422 14.5677 8.6981 13.5917 8.96689C12.6156 9.23568 11.7021 9.6941 10.9033 10.316C10.1044 10.9379 9.43594 11.711 8.93594 12.5913L7.88867 11.9952C9.05736 9.94022 10.9942 8.43346 13.2735 7.80609C15.5527 7.17872 17.9878 7.48209 20.0435 8.64952Z" fill="#939393"/>
</g>
<defs>
<clipPath id="clip0_1104_355">
<rect width="41.2464" height="41.2464" fill="white" transform="translate(0.519287 0.864258)"/>
</clipPath>
</defs>
</svg>
