<svg width="30" height="30" viewBox="0 0 30 30" fill="none" xmlns="http://www.w3.org/2000/svg">
<g id="clock">
<g id="Group">
<path id="Vector" d="M14.9531 25.7344C9.04687 25.7344 4.21875 20.9062 4.21875 15C4.21875 9.09375 9.04687 4.26562 14.9531 4.26562C20.8594 4.26562 25.6875 9.09375 25.6875 15C25.7344 20.9062 20.9062 25.7344 14.9531 25.7344ZM14.9531 5.39062C9.65625 5.39062 5.39062 9.70312 5.39062 14.9531C5.39062 20.2031 9.70312 24.5156 14.9531 24.5156C20.2031 24.5156 24.5156 20.2031 24.5156 14.9531C24.5156 9.70312 20.25 5.39062 14.9531 5.39062Z" fill="white"/>
<path id="Vector_2" d="M18.3281 20.4844L14.3438 16.5V9.23438H15.6094V15.9844L19.2187 19.5937L18.3281 20.4844Z" fill="white"/>
</g>
</g>
</svg>
