<svg width="51" height="51" viewBox="0 0 51 51" fill="none" xmlns="http://www.w3.org/2000/svg">
<g clip-path="url(#clip0_1104_928)">
<path d="M20.7448 0.597656H3.61666C2.79072 0.597656 1.9986 0.92576 1.41457 1.50979C0.830545 2.09382 0.502441 2.88593 0.502441 3.71187L0.502441 20.8401C0.502441 21.666 0.830545 22.4581 1.41457 23.0421C1.9986 23.6262 2.79072 23.9543 3.61666 23.9543H20.7448C21.5708 23.9543 22.3629 23.6262 22.9469 23.0421C23.531 22.4581 23.8591 21.666 23.8591 20.8401V3.71187C23.8591 2.88593 23.531 2.09382 22.9469 1.50979C22.3629 0.92576 21.5708 0.597656 20.7448 0.597656ZM22.302 19.283C22.302 20.1089 21.9738 20.901 21.3898 21.485C20.8058 22.0691 20.0137 22.3972 19.1877 22.3972H5.17377C4.34782 22.3972 3.55571 22.0691 2.97168 21.485C2.38765 20.901 2.05955 20.1089 2.05955 19.283V5.26898C2.05955 4.44304 2.38765 3.65093 2.97168 3.0669C3.55571 2.48287 4.34782 2.15476 5.17377 2.15476H19.1877C20.0137 2.15476 20.8058 2.48287 21.3898 3.0669C21.9738 3.65093 22.302 4.44304 22.302 5.26898V19.283ZM47.2157 0.597656H30.0875C29.2616 0.597656 28.4694 0.92576 27.8854 1.50979C27.3014 2.09382 26.9733 2.88593 26.9733 3.71187V20.8401C26.9733 21.666 27.3014 22.4581 27.8854 23.0421C28.4694 23.6262 29.2616 23.9543 30.0875 23.9543H47.2157C48.0416 23.9543 48.8337 23.6262 49.4178 23.0421C50.0018 22.4581 50.3299 21.666 50.3299 20.8401V3.71187C50.3299 2.88593 50.0018 2.09382 49.4178 1.50979C48.8337 0.92576 48.0416 0.597656 47.2157 0.597656ZM48.7728 19.283C48.7728 20.1089 48.4447 20.901 47.8607 21.485C47.2766 22.0691 46.4845 22.3972 45.6586 22.3972H31.6446C30.8187 22.3972 30.0265 22.0691 29.4425 21.485C28.8585 20.901 28.5304 20.1089 28.5304 19.283V5.26898C28.5304 4.44304 28.8585 3.65093 29.4425 3.0669C30.0265 2.48287 30.8187 2.15476 31.6446 2.15476H45.6586C46.4845 2.15476 47.2766 2.48287 47.8607 3.0669C48.4447 3.65093 48.7728 4.44304 48.7728 5.26898V19.283ZM20.7448 27.0685H3.61666C2.79072 27.0685 1.9986 27.3966 1.41457 27.9806C0.830545 28.5647 0.502441 29.3568 0.502441 30.1827L0.502441 47.3109C0.502441 48.1368 0.830545 48.9289 1.41457 49.513C1.9986 50.097 2.79072 50.4251 3.61666 50.4251H20.7448C21.5708 50.4251 22.3629 50.097 22.9469 49.513C23.531 48.9289 23.8591 48.1368 23.8591 47.3109V30.1827C23.8591 29.3568 23.531 28.5647 22.9469 27.9806C22.3629 27.3966 21.5708 27.0685 20.7448 27.0685ZM22.302 45.7538C22.302 46.5797 21.9738 47.3718 21.3898 47.9559C20.8058 48.5399 20.0137 48.868 19.1877 48.868H5.17377C4.34782 48.868 3.55571 48.5399 2.97168 47.9559C2.38765 47.3718 2.05955 46.5797 2.05955 45.7538V31.7398C2.05955 30.9139 2.38765 30.1218 2.97168 29.5377C3.55571 28.9537 4.34782 28.6256 5.17377 28.6256H19.1877C20.0137 28.6256 20.8058 28.9537 21.3898 29.5377C21.9738 30.1218 22.302 30.9139 22.302 31.7398V45.7538ZM47.2157 27.0685H30.0875C29.2616 27.0685 28.4694 27.3966 27.8854 27.9806C27.3014 28.5647 26.9733 29.3568 26.9733 30.1827V47.3109C26.9733 48.1368 27.3014 48.9289 27.8854 49.513C28.4694 50.097 29.2616 50.4251 30.0875 50.4251H47.2157C48.0416 50.4251 48.8337 50.097 49.4178 49.513C50.0018 48.9289 50.3299 48.1368 50.3299 47.3109V30.1827C50.3299 29.3568 50.0018 28.5647 49.4178 27.9806C48.8337 27.3966 48.0416 27.0685 47.2157 27.0685ZM48.7728 45.7538C48.7728 46.5797 48.4447 47.3718 47.8607 47.9559C47.2766 48.5399 46.4845 48.868 45.6586 48.868H31.6446C30.8187 48.868 30.0265 48.5399 29.4425 47.9559C28.8585 47.3718 28.5304 46.5797 28.5304 45.7538V31.7398C28.5304 30.9139 28.8585 30.1218 29.4425 29.5377C30.0265 28.9537 30.8187 28.6256 31.6446 28.6256H45.6586C46.4845 28.6256 47.2766 28.9537 47.8607 29.5377C48.4447 30.1218 48.7728 30.9139 48.7728 31.7398V45.7538Z" fill="white"/>
</g>
<defs>
<clipPath id="clip0_1104_928">
<rect width="49.8275" height="49.8275" fill="white" transform="translate(0.501953 0.597656)"/>
</clipPath>
</defs>
</svg>
