<svg width="51" height="51" viewBox="0 0 51 51" fill="none" xmlns="http://www.w3.org/2000/svg">
<g id="list (1)">
<path id="Vector" d="M19.8239 21.4001C18.004 21.4001 16.1793 21.4001 14.3594 21.4001C11.7415 21.4001 9.12365 21.4001 6.51063 21.4001C6.23327 21.4001 5.95591 21.4001 5.68341 21.4001C5.64448 21.4001 5.61042 21.4001 5.57149 21.4001C5.54716 21.4001 5.5277 21.4001 5.50337 21.4001C5.39145 21.3904 5.41092 21.3952 5.56176 21.4147C5.55203 21.4244 5.42065 21.3855 5.40119 21.3806C5.38172 21.3758 5.24548 21.3466 5.24548 21.332C5.2844 21.3466 5.32333 21.366 5.35739 21.3806C5.31846 21.3612 5.27954 21.3417 5.24548 21.3222C5.22601 21.3125 5.0849 21.2395 5.0849 21.2201C5.11896 21.2444 5.14816 21.2687 5.18222 21.293C5.14816 21.2639 5.11896 21.2347 5.08976 21.2055C5.09463 21.2103 5.00218 21.1179 5.00218 21.113C5.0849 21.2298 5.0995 21.2444 5.03624 21.1568C5.01191 21.1227 4.98758 21.0838 4.96812 21.0498C4.95838 21.0303 4.94865 21.0108 4.93892 20.9914C4.89513 20.894 4.89999 20.9135 4.95838 21.0498C4.94379 21.0498 4.90486 20.8794 4.89999 20.8648C4.89999 20.8746 4.86593 20.7383 4.87566 20.7335C4.88053 20.7773 4.89026 20.8162 4.89513 20.86C4.89026 20.8162 4.89026 20.7675 4.89026 20.7237C4.89026 20.714 4.89026 20.7043 4.89026 20.6945C4.89026 20.6215 4.89026 20.5437 4.89026 20.4707C4.89026 20.1204 4.89026 19.7749 4.89026 19.4245C4.89026 16.7336 4.89026 14.0379 4.89026 11.347C4.89026 10.1451 4.89026 8.94324 4.89026 7.74135C4.89026 7.40073 4.89026 7.06012 4.89026 6.7195C4.89026 6.64651 4.89026 6.56865 4.89026 6.49566C4.89026 6.48593 4.89026 6.4762 4.89026 6.47133C4.89026 6.447 4.89026 6.42754 4.89026 6.40321C4.89999 6.31562 4.89513 6.31562 4.88539 6.39835C4.88053 6.41781 4.88053 6.44214 4.87566 6.4616C4.88053 6.41781 4.89026 6.37402 4.89999 6.33022C4.90486 6.31076 4.94379 6.14532 4.95838 6.14532C4.89999 6.2767 4.89513 6.29616 4.93892 6.20371C4.95838 6.16478 4.97785 6.13072 5.00218 6.09179C5.01191 6.07233 5.02651 6.05773 5.03624 6.03826C5.0849 5.97014 5.0849 5.97014 5.03624 6.0334C5.02164 6.048 5.01191 6.06746 4.99731 6.08206C5.02651 6.048 5.0557 6.0188 5.0849 5.9896C5.0995 5.97501 5.11409 5.96041 5.12869 5.94581C5.20655 5.87769 5.19195 5.88742 5.08003 5.97501C5.08003 5.95554 5.22115 5.88255 5.24061 5.87282C5.26007 5.86309 5.27954 5.85336 5.299 5.84363C5.39632 5.79983 5.37686 5.8047 5.24061 5.86309C5.26981 5.86309 5.3282 5.83389 5.36226 5.82416C5.38172 5.8193 5.54717 5.76577 5.5569 5.78037C5.40605 5.79983 5.38659 5.8047 5.49851 5.79497C5.52284 5.79497 5.5423 5.79497 5.56663 5.79497C5.60556 5.79497 5.64935 5.79497 5.68828 5.79497C5.9705 5.79497 6.25273 5.79497 6.53496 5.79497C7.68819 5.79497 8.83656 5.79497 9.98979 5.79497C12.7342 5.79497 15.4737 5.79497 18.2181 5.79497C18.7534 5.79497 19.2935 5.78523 19.8288 5.79497C19.8531 5.79497 19.8726 5.79497 19.8969 5.79497C20.0088 5.8047 19.9893 5.79983 19.8385 5.78037C19.8482 5.76577 20.0137 5.8193 20.0331 5.82416C20.0526 5.82903 20.0769 5.83876 20.0964 5.84363C20.1937 5.88255 20.1791 5.87282 20.0429 5.8193C20.0526 5.80956 20.1694 5.88742 20.184 5.89229C20.2034 5.90202 20.3154 5.96041 20.3154 5.97987C20.2813 5.95554 20.2521 5.93121 20.218 5.90688C20.2521 5.93608 20.2813 5.96528 20.3105 5.99447C20.3251 6.00907 20.3397 6.02367 20.3543 6.03826C20.4224 6.11612 20.4127 6.10152 20.3251 5.9896C20.3592 5.9896 20.4419 6.17938 20.4613 6.20857C20.5441 6.33995 20.4224 6.15018 20.4419 6.15018C20.4565 6.15018 20.4954 6.32049 20.5003 6.33509C20.5051 6.35455 20.51 6.37888 20.5149 6.39835C20.5343 6.5054 20.5295 6.48593 20.51 6.33509C20.5149 6.33509 20.5149 6.47133 20.5149 6.47133C20.5149 6.48107 20.5149 6.49566 20.5149 6.5054C20.5149 6.72436 20.5149 6.9482 20.5149 7.16717C20.5149 9.69747 20.5149 12.2278 20.5149 14.7581C20.5149 16.7385 20.5392 18.719 20.5149 20.6994C20.5149 20.7091 20.5149 20.7189 20.5149 20.7237C20.5149 20.7481 20.5149 20.7675 20.5149 20.7919C20.5051 20.9038 20.51 20.8843 20.5295 20.7335C20.5441 20.7432 20.4905 20.9086 20.4857 20.9281C20.4808 20.9524 20.3981 21.1422 20.4662 20.9962C20.5343 20.8454 20.4419 21.0352 20.4321 21.0546C20.4224 21.0741 20.3494 21.2152 20.33 21.2152C20.3543 21.1811 20.3786 21.1519 20.4029 21.1179C20.3738 21.1519 20.3446 21.1811 20.3154 21.2103C20.3008 21.2249 20.2862 21.2395 20.2716 21.2541C20.1937 21.3222 20.2083 21.3125 20.3202 21.2249C20.3202 21.2347 20.2326 21.2882 20.2132 21.2979C20.1986 21.3076 20.0526 21.4001 20.0429 21.3904C20.0818 21.3758 20.1207 21.3563 20.1548 21.3417C20.1159 21.3563 20.0721 21.3709 20.0331 21.3806C20.0137 21.3855 19.8482 21.439 19.8385 21.4244C19.8823 21.4196 19.9212 21.4098 19.965 21.405C19.9164 21.4001 19.8726 21.4001 19.8239 21.4001C19.313 21.4098 18.8264 21.838 18.8507 22.3733C18.875 22.8939 19.2789 23.3562 19.8239 23.3465C21.274 23.3173 22.4272 22.1689 22.4515 20.7189C22.4564 20.5534 22.4515 20.3928 22.4515 20.2274C22.4515 19.1958 22.4515 18.1691 22.4515 17.1375C22.4515 14.2715 22.4515 11.4103 22.4515 8.54423C22.4515 7.85813 22.4613 7.17203 22.4515 6.48593C22.4369 5.34243 21.7411 4.35951 20.6657 3.9751C20.2959 3.84372 19.9066 3.83398 19.5222 3.83398C17.133 3.83398 14.7438 3.83398 12.3546 3.83398C10.1309 3.83398 7.90229 3.83398 5.67855 3.83398C4.90486 3.83398 4.1409 4.10161 3.62024 4.69526C3.14338 5.23538 2.93901 5.89229 2.93901 6.60272C2.93901 7.43479 2.93901 8.26687 2.93901 9.09895C2.93901 11.9845 2.93901 14.87 2.93901 17.7555C2.93901 18.6606 2.93901 19.5656 2.93901 20.4707C2.93901 20.9719 3.00227 21.4488 3.2261 21.9062C3.66404 22.8064 4.62263 23.3319 5.60556 23.3416C7.70765 23.3562 9.81461 23.3416 11.9167 23.3416C14.4081 23.3416 16.8995 23.3416 19.386 23.3416C19.5319 23.3416 19.6779 23.3416 19.819 23.3416C20.33 23.3416 20.8166 22.8939 20.7922 22.3684C20.7728 21.8478 20.3689 21.4001 19.8239 21.4001ZM19.8239 27.6772C17.931 27.6772 16.0382 27.6772 14.1453 27.6772C11.5274 27.6772 8.90954 27.6772 6.29166 27.6772C6.06296 27.6772 5.83426 27.6772 5.60556 27.6772C4.47665 27.6869 3.51319 28.3584 3.10445 29.3997C2.84169 30.0761 2.93901 30.9471 2.93901 31.6624C2.93901 34.4263 2.93901 37.1901 2.93901 39.9589C2.93901 41.151 2.93901 42.3481 2.93901 43.5402C2.93901 43.8419 2.93901 44.1387 2.93901 44.4404C2.93901 45.18 3.17744 45.8905 3.70783 46.4209C4.24309 46.9561 4.95352 47.1897 5.69801 47.1897C5.99483 47.1897 6.29166 47.1897 6.58362 47.1897C7.77578 47.1897 8.9728 47.1897 10.165 47.1897C12.9386 47.1897 15.717 47.1897 18.4906 47.1897C19.313 47.1897 20.1888 47.2773 20.9577 46.9269C21.8871 46.5036 22.4418 45.5304 22.4515 44.528C22.4515 44.2993 22.4515 44.0706 22.4515 43.8419C22.4515 41.224 22.4515 38.6061 22.4515 35.9882C22.4515 34.0954 22.4856 32.2025 22.4515 30.3097C22.4272 28.8547 21.274 27.7064 19.8239 27.6772C19.313 27.6675 18.8264 28.1346 18.8507 28.6504C18.875 29.1856 19.2789 29.6138 19.8239 29.6236C19.8482 29.6236 19.8677 29.6236 19.892 29.6236C20.0039 29.6333 19.9845 29.6284 19.8336 29.609C19.8434 29.5944 20.0088 29.6479 20.0283 29.6528C20.0477 29.6576 20.0721 29.6674 20.0915 29.6722C20.1888 29.7112 20.1742 29.7014 20.038 29.6479C20.0477 29.6382 20.1645 29.716 20.1791 29.7209C20.1986 29.7306 20.3105 29.789 20.3105 29.8085C20.2764 29.7841 20.2472 29.7598 20.2132 29.7355C20.2472 29.7647 20.2764 29.7939 20.3056 29.8231C20.3202 29.8377 20.3348 29.8523 20.3494 29.8669C20.4175 29.9447 20.4078 29.9301 20.3202 29.8182C20.3543 29.8182 20.437 30.008 20.4565 30.0372C20.5392 30.1686 20.4175 29.9788 20.437 29.9788C20.4516 29.9788 20.4905 30.1491 20.4954 30.1637C20.5003 30.1832 20.5051 30.2075 20.51 30.227C20.5295 30.334 20.5246 30.3145 20.5051 30.1637C20.51 30.1637 20.51 30.2999 20.51 30.2999C20.51 30.3097 20.51 30.3243 20.51 30.334C20.51 30.553 20.51 30.7768 20.51 30.9958C20.51 32.0663 20.51 33.1319 20.51 34.2024C20.51 36.9955 20.51 39.7837 20.51 42.5768C20.51 43.2288 20.5197 43.876 20.51 44.528C20.51 44.5377 20.51 44.5475 20.51 44.5523C20.51 44.5767 20.51 44.5961 20.51 44.6205C20.5003 44.7324 20.5051 44.7129 20.5246 44.5621C20.5392 44.5718 20.4857 44.7372 20.4808 44.7567C20.4759 44.781 20.3932 44.9708 20.4613 44.8248C20.5295 44.674 20.4078 44.9124 20.3932 44.9367C20.3835 44.9562 20.3689 44.9708 20.3592 44.9903C20.3008 45.073 20.3105 45.0584 20.3932 44.9465C20.3981 44.9562 20.2716 45.073 20.2618 45.0827C20.1207 45.2384 20.4419 44.9805 20.2618 45.0876C20.2229 45.1071 20.1888 45.1314 20.1548 45.1557C20.1353 45.1655 20.1159 45.1752 20.0964 45.1849C19.9991 45.2287 20.0185 45.2238 20.1548 45.1655C20.1548 45.18 19.9845 45.219 19.9699 45.2238C19.9504 45.2287 19.9261 45.2336 19.9066 45.2384C19.7996 45.2579 19.819 45.253 19.9699 45.2336C19.9504 45.2238 19.8628 45.2384 19.8336 45.2384C19.6779 45.2433 19.5173 45.2384 19.3616 45.2384C16.9335 45.2384 14.5005 45.2384 12.0724 45.2384C9.94113 45.2384 7.80984 45.2384 5.67855 45.2384C5.62015 45.2384 5.56176 45.2384 5.50824 45.2384C5.27954 45.2433 5.71747 45.292 5.50337 45.2433C5.45958 45.2336 5.41578 45.2238 5.37686 45.2141C5.35739 45.2092 5.33306 45.1995 5.3136 45.1946C5.21628 45.1557 5.23088 45.1654 5.36712 45.219C5.35739 45.2287 5.21141 45.1363 5.19682 45.1265C5.17735 45.1168 5.16275 45.1022 5.14329 45.0925C5.06057 45.0341 5.07517 45.0438 5.18708 45.1265C5.17735 45.1314 5.06057 45.0049 5.05084 44.9951C4.93892 44.893 5.10436 45.0438 5.08003 45.0438C5.04597 45.0438 4.96325 44.854 4.94379 44.8248C4.83187 44.6448 4.99245 45.0292 4.94379 44.82C4.92919 44.7567 4.90972 44.6935 4.89513 44.6302C4.85133 44.4794 4.91946 44.6983 4.89999 44.6935C4.89513 44.6935 4.89513 44.5572 4.89513 44.5572C4.89513 44.5475 4.89513 44.5329 4.89513 44.5231C4.89513 44.4453 4.89513 44.3674 4.89513 44.2896C4.89513 43.3942 4.89513 42.4989 4.89513 41.6036C4.89513 38.7813 4.89513 35.9639 4.89513 33.1417C4.89513 32.2755 4.89513 31.4094 4.89513 30.5481C4.89513 30.4751 4.89513 30.4021 4.89513 30.3291C4.89513 30.2999 4.89513 30.2659 4.89513 30.2416C4.89026 30.042 4.89513 30.3097 4.88053 30.2999C4.86593 30.2902 4.91946 30.1248 4.92432 30.1053C4.92919 30.0858 4.93892 30.0615 4.94379 30.042C4.98271 29.9447 4.97298 29.9593 4.91946 30.0956C4.90486 30.081 5.03137 29.8961 5.04597 29.8717C5.14329 29.7112 5.01678 29.9253 5.01191 29.9155C5.00704 29.9058 5.13356 29.789 5.14329 29.7793C5.2844 29.6236 4.96325 29.8815 5.14329 29.7744C5.19682 29.7404 5.25521 29.7112 5.30873 29.6771C5.48877 29.5652 5.10436 29.7258 5.3136 29.6771C5.35739 29.6674 5.39632 29.6528 5.44011 29.643C5.45958 29.6382 5.48391 29.6333 5.50337 29.6284C5.61042 29.609 5.59096 29.6138 5.44011 29.6333C5.44011 29.6284 5.57636 29.6284 5.57636 29.6284C5.62015 29.6284 5.66395 29.6284 5.70774 29.6284C7.87796 29.6284 10.0482 29.6284 12.2184 29.6284C14.6173 29.6284 17.0162 29.6284 19.4152 29.6284C19.5563 29.6284 19.6925 29.6284 19.8336 29.6284C20.3446 29.6284 20.8312 29.1808 20.8068 28.6552C20.7728 28.1249 20.3689 27.6772 19.8239 27.6772ZM26.6071 10.077C27.3126 10.077 28.0133 10.077 28.7189 10.077C30.3976 10.077 32.0813 10.077 33.76 10.077C35.7989 10.077 37.8426 10.077 39.8814 10.077C41.638 10.077 43.3946 10.077 45.1512 10.077C46.0076 10.077 46.8641 10.1013 47.7205 10.077C47.7351 10.077 47.7448 10.077 47.7594 10.077C48.2703 10.077 48.7569 9.62934 48.7326 9.10382C48.7083 8.5783 48.3044 8.13063 47.7594 8.13063C47.0538 8.13063 46.3531 8.13063 45.6476 8.13063C43.9688 8.13063 42.2852 8.13063 40.6064 8.13063C38.5676 8.13063 36.5239 8.13063 34.485 8.13063C32.7284 8.13063 30.9718 8.13063 29.2152 8.13063C28.3588 8.13063 27.5024 8.1063 26.646 8.13063C26.6314 8.13063 26.6217 8.13063 26.6071 8.13063C26.0961 8.13063 25.6095 8.5783 25.6339 9.10382C25.6582 9.62934 26.0621 10.077 26.6071 10.077ZM40.115 17.1035C38.5871 17.1035 37.064 17.1035 35.5361 17.1035C33.1128 17.1035 30.6945 17.1035 28.2712 17.1035C27.7165 17.1035 27.1618 17.1035 26.6071 17.1035C26.0961 17.1035 25.6095 17.5511 25.6339 18.0766C25.6582 18.6022 26.0621 19.0498 26.6071 19.0498C28.135 19.0498 29.658 19.0498 31.1859 19.0498C33.6092 19.0498 36.0276 19.0498 38.4508 19.0498C39.0055 19.0498 39.5602 19.0498 40.115 19.0498C40.6259 19.0498 41.1125 18.6022 41.0882 18.0766C41.0638 17.5511 40.66 17.1035 40.115 17.1035ZM26.6071 33.9202C27.3126 33.9202 28.0133 33.9202 28.7189 33.9202C30.3976 33.9202 32.0813 33.9202 33.76 33.9202C35.7989 33.9202 37.8426 33.9202 39.8814 33.9202C41.638 33.9202 43.3946 33.9202 45.1512 33.9202C46.0076 33.9202 46.8641 33.9445 47.7205 33.9202C47.7351 33.9202 47.7448 33.9202 47.7594 33.9202C48.2703 33.9202 48.7569 33.4725 48.7326 32.947C48.7083 32.4215 48.3044 31.9738 47.7594 31.9738C47.0538 31.9738 46.3531 31.9738 45.6476 31.9738C43.9688 31.9738 42.2852 31.9738 40.6064 31.9738C38.5676 31.9738 36.5239 31.9738 34.485 31.9738C32.7284 31.9738 30.9718 31.9738 29.2152 31.9738C28.3588 31.9738 27.5024 31.9495 26.646 31.9738C26.6314 31.9738 26.6217 31.9738 26.6071 31.9738C26.0961 31.9738 25.6095 32.4215 25.6339 32.947C25.6582 33.4725 26.0621 33.9202 26.6071 33.9202ZM40.115 40.9467C38.5871 40.9467 37.064 40.9467 35.5361 40.9467C33.1128 40.9467 30.6945 40.9467 28.2712 40.9467C27.7165 40.9467 27.1618 40.9467 26.6071 40.9467C26.0961 40.9467 25.6095 41.3943 25.6339 41.9199C25.6582 42.4454 26.0621 42.893 26.6071 42.893C28.135 42.893 29.658 42.893 31.1859 42.893C33.6092 42.893 36.0276 42.893 38.4508 42.893C39.0055 42.893 39.5602 42.893 40.115 42.893C40.6259 42.893 41.1125 42.4454 41.0882 41.9199C41.0638 41.3943 40.66 40.9467 40.115 40.9467Z" fill="white"/>
</g>
</svg>
