<svg width="25" height="25" viewBox="0 0 25 25" fill="none" xmlns="http://www.w3.org/2000/svg">
<path d="M12.6925 2.01026L15.9842 8.68734C15.9995 8.71833 16.0223 8.74503 16.0505 8.76504C16.0786 8.78504 16.1114 8.79771 16.1457 8.80192L23.5051 9.89567C23.5447 9.90113 23.582 9.9176 23.6127 9.94322C23.6434 9.96884 23.6663 10.0026 23.6788 10.0406C23.6913 10.0786 23.6928 10.1193 23.6833 10.1581C23.6738 10.197 23.6535 10.2324 23.6248 10.2603L18.2967 15.4686C18.2751 15.4884 18.2578 15.5126 18.2462 15.5395C18.2345 15.5664 18.2287 15.5955 18.229 15.6248L19.4894 22.9582C19.4956 22.997 19.4909 23.0368 19.4759 23.0731C19.4608 23.1095 19.4361 23.141 19.4043 23.1641C19.3725 23.1873 19.3349 23.2012 19.2957 23.2044C19.2565 23.2076 19.2172 23.1999 19.1821 23.1821L12.5988 19.7082C12.5681 19.6926 12.5342 19.6845 12.4998 19.6845C12.4655 19.6845 12.4315 19.6926 12.4009 19.7082L5.81234 23.1717C5.77724 23.1895 5.73793 23.1972 5.69873 23.194C5.65953 23.1908 5.62197 23.1769 5.59019 23.1537C5.5584 23.1306 5.53363 23.0991 5.51861 23.0627C5.50359 23.0264 5.49889 22.9866 5.50505 22.9478L6.77067 15.6248C6.77659 15.5909 6.77398 15.5559 6.76307 15.5232C6.75216 15.4905 6.7333 15.461 6.70817 15.4373L1.38004 10.229C1.35138 10.2011 1.33113 10.1657 1.32159 10.1269C1.31205 10.088 1.31362 10.0473 1.3261 10.0093C1.33858 9.97131 1.36149 9.93758 1.39221 9.91197C1.42292 9.88635 1.46021 9.86988 1.49984 9.86442L8.854 8.80192C8.88831 8.79771 8.92103 8.78504 8.94921 8.76504C8.9774 8.74503 9.00017 8.71833 9.01546 8.68734L12.3071 2.01026C12.3258 1.97543 12.3536 1.94632 12.3876 1.92603C12.4215 1.90573 12.4603 1.89502 12.4998 1.89502C12.5394 1.89502 12.5782 1.90573 12.6121 1.92603C12.646 1.94632 12.6738 1.97543 12.6925 2.01026Z" fill="white"/>
<path d="M19.2288 23.3644C19.1433 23.364 19.0592 23.3426 18.984 23.3019L12.4996 19.8905L6.01524 23.3019C5.92941 23.3468 5.83276 23.3669 5.73615 23.3599C5.63954 23.3529 5.5468 23.3191 5.46834 23.2623C5.38989 23.2055 5.32883 23.1279 5.29203 23.0383C5.25523 22.9487 5.24415 22.8506 5.26003 22.7551L6.4944 15.5311L1.24961 10.4165C1.18266 10.3497 1.13517 10.2659 1.11223 10.1742C1.08929 10.0824 1.09177 9.98615 1.1194 9.89569C1.14942 9.79827 1.20736 9.71179 1.28606 9.64698C1.36475 9.58217 1.46074 9.54189 1.56211 9.53111L8.81211 8.48944L12.0309 1.90611C12.0735 1.81805 12.1401 1.74379 12.223 1.69183C12.3059 1.63986 12.4018 1.6123 12.4996 1.6123C12.5975 1.6123 12.6933 1.63986 12.7762 1.69183C12.8591 1.74379 12.9257 1.81805 12.9684 1.90611L16.2079 8.47382L23.4371 9.53111C23.5335 9.54481 23.6241 9.58526 23.6987 9.64786C23.7733 9.71046 23.8288 9.79271 23.859 9.88528C23.8866 9.97573 23.8891 10.072 23.8662 10.1638C23.8432 10.2555 23.7957 10.3393 23.7288 10.4061L18.5048 15.5311L19.7392 22.7551C19.7583 22.8522 19.7494 22.9528 19.7134 23.045C19.6775 23.1373 19.6159 23.2174 19.5361 23.2759C19.4455 23.3369 19.338 23.3679 19.2288 23.3644ZM12.4996 18.7811C12.5851 18.7815 12.6692 18.803 12.7444 18.8436L18.5361 21.8749L17.4267 15.4374C17.4121 15.3536 17.4183 15.2676 17.4446 15.1868C17.471 15.106 17.5167 15.0329 17.5777 14.9738L22.2652 10.4061L15.7861 9.46861C15.7026 9.45608 15.6235 9.42346 15.5554 9.37356C15.4874 9.32366 15.4325 9.25797 15.3954 9.18215L12.4996 3.31236L9.60378 9.18215C9.56674 9.25797 9.51184 9.32366 9.44379 9.37356C9.37575 9.42346 9.2966 9.45608 9.21315 9.46861L2.73399 10.4165L7.42149 14.9842C7.48257 15.0433 7.52826 15.1164 7.55459 15.1972C7.58092 15.278 7.58708 15.3641 7.57253 15.4478L6.46315 21.8749L12.2548 18.828C12.3314 18.7928 12.4154 18.7767 12.4996 18.7811Z" fill="white"/>
</svg>
